<svg width="16" height="16" viewBox="0 0 16 16" fill="none" xmlns="http://www.w3.org/2000/svg">
<path fill-rule="evenodd" clip-rule="evenodd" d="M10.3613 7.52036C10.4862 7.64538 10.5564 7.81492 10.5564 7.9917C10.5564 8.16847 10.4862 8.33801 10.3613 8.46303L6.58992 12.2344C6.52842 12.298 6.45486 12.3488 6.37352 12.3838C6.29218 12.4187 6.2047 12.4371 6.11619 12.4379C6.02767 12.4386 5.93988 12.4218 5.85795 12.3882C5.77602 12.3547 5.70158 12.3052 5.63899 12.2426C5.57639 12.18 5.52689 12.1056 5.49337 12.0237C5.45985 11.9417 5.44298 11.8539 5.44375 11.7654C5.44452 11.6769 5.46291 11.5894 5.49785 11.5081C5.53279 11.4268 5.58358 11.3532 5.64725 11.2917L8.94725 7.9917L5.64725 4.6917C5.52581 4.56596 5.45862 4.39756 5.46013 4.22276C5.46165 4.04797 5.53177 3.88076 5.65537 3.75715C5.77898 3.63355 5.94619 3.56343 6.12098 3.56191C6.29578 3.5604 6.46418 3.62759 6.58992 3.74903L10.3613 7.52036Z" fill="white"/>
</svg>
