<svg width="16" height="16" viewBox="0 0 16 16" fill="none" xmlns="http://www.w3.org/2000/svg">
<path fill-rule="evenodd" clip-rule="evenodd" d="M10.3611 7.52043C10.4861 7.64544 10.5563 7.81498 10.5563 7.99176C10.5563 8.16853 10.4861 8.33807 10.3611 8.46309L6.5898 12.2344C6.5283 12.2981 6.45473 12.3489 6.3734 12.3838C6.29206 12.4188 6.20458 12.4372 6.11606 12.4379C6.02754 12.4387 5.93976 12.4218 5.85783 12.3883C5.7759 12.3548 5.70146 12.3053 5.63887 12.2427C5.57627 12.1801 5.52677 12.1057 5.49325 12.0237C5.45973 11.9418 5.44286 11.854 5.44363 11.7655C5.4444 11.677 5.46279 11.5895 5.49773 11.5082C5.53267 11.4268 5.58346 11.3533 5.64713 11.2918L8.94713 7.99176L5.64713 4.69176C5.52569 4.56602 5.45849 4.39762 5.46001 4.22283C5.46153 4.04803 5.53164 3.88082 5.65525 3.75721C5.77885 3.63361 5.94606 3.56349 6.12086 3.56198C6.29566 3.56046 6.46406 3.62765 6.5898 3.74909L10.3611 7.52043Z" fill="#0F2647"/>
</svg>
