<svg width="20" height="20" viewBox="0 0 20 20" fill="none" xmlns="http://www.w3.org/2000/svg">
<path d="M10.0001 16.6667C13.6667 16.6667 16.6667 13.6667 16.6667 9.99999C16.6667 6.33332 13.6667 3.33332 10.0001 3.33332C6.33341 3.33332 3.33341 6.33332 3.33341 9.99999C3.33341 13.6667 6.33341 16.6667 10.0001 16.6667ZM10.0001 1.66666C14.5834 1.66666 18.3334 5.41666 18.3334 9.99999C18.3334 14.5833 14.5834 18.3333 10.0001 18.3333C5.41675 18.3333 1.66675 14.5833 1.66675 9.99999C1.66675 5.41666 5.41675 1.66666 10.0001 1.66666ZM14.1667 9.58332V10.8333H9.16675V5.83332H10.4167V9.58332H14.1667Z" fill="#6D9EE9"/>
</svg>
