<svg width="20" height="20" viewBox="0 0 20 20" fill="none" xmlns="http://www.w3.org/2000/svg">
<path d="M13.3333 1.66669C11.0333 1.66669 9.16658 3.53335 9.16658 5.83335C9.16658 8.13335 11.0333 10 13.3333 10C15.6333 10 17.4999 8.13335 17.4999 5.83335C17.4999 3.53335 15.6333 1.66669 13.3333 1.66669ZM13.3333 8.33335C11.9499 8.33335 10.8333 7.21669 10.8333 5.83335C10.8333 4.45002 11.9499 3.33335 13.3333 3.33335C14.7166 3.33335 15.8333 4.45002 15.8333 5.83335C15.8333 7.21669 14.7166 8.33335 13.3333 8.33335ZM15.8333 13.3334H14.1666C14.1666 12.3334 13.5416 11.4334 12.6083 11.0834L7.47492 9.16669H0.833252V18.3334H5.83325V17.1334L11.6666 18.75L18.3333 16.6667V15.8334C18.3333 14.45 17.2166 13.3334 15.8333 13.3334ZM4.16659 16.6667H2.49992V10.8334H4.16659V16.6667ZM11.6416 17.0084L5.83325 15.4167V10.8334H7.17492L12.0249 12.6417C12.3083 12.75 12.4999 13.025 12.4999 13.3334C12.4999 13.3334 10.8333 13.2917 10.5833 13.2084L8.59992 12.55L8.07492 14.1334L10.0583 14.7917C10.4833 14.9334 10.9249 15 11.3749 15H15.8333C16.1583 15 16.4499 15.2 16.5833 15.475L11.6416 17.0084Z" fill="#6D9EE9"/>
</svg>
